<?xml version="1.0" encoding="UTF-8"?>
<svg id="Layer_1" xmlns="http://www.w3.org/2000/svg" xmlns:xlink="http://www.w3.org/1999/xlink" version="1.1" viewBox="0 0 595.3 841.9">
  <!-- Generator: Adobe Illustrator 29.0.1, SVG Export Plug-In . SVG Version: 2.1.0 Build 192)  -->
  <defs>
    <style>
      .st0, .st1, .st2, .st3, .st4, .st5, .st6, .st7, .st8, .st9, .st10, .st11, .st12, .st13, .st14, .st15, .st16, .st17, .st18, .st19, .st20, .st21, .st22, .st23, .st24 {
        fill: none;
      }

      .st25, .st26, .st27, .st28 {
        font-family: TimesNewRomanPS-BoldMT, 'Times New Roman';
        font-weight: 700;
      }

      .st25, .st29, .st30 {
        font-size: 6px;
      }

      .st1, .st2, .st3, .st4, .st5, .st6, .st7, .st8, .st9, .st10, .st11, .st12, .st13, .st14, .st15, .st16, .st17, .st18, .st19, .st20, .st21, .st22, .st23, .st24 {
        stroke-miterlimit: 10;
      }

      .st1, .st13, .st16, .st21 {
        stroke-width: 3.8px;
      }

      .st1, .st23 {
        stroke: #4d9133;
      }

      .st31 {
        fill: #bec0c2;
      }

      .st2, .st7, .st8, .st14, .st20, .st23, .st24 {
        stroke-width: .8px;
      }

      .st2, .st16 {
        stroke: #ccc;
      }

      .st26, .st32 {
        font-size: 10.2px;
      }

      .st33 {
        fill: #2e6290;
      }

      .st27 {
        font-size: 11.9px;
      }

      .st3, .st4, .st5, .st6, .st10, .st12, .st17, .st22 {
        stroke-width: 1.4px;
      }

      .st3, .st18 {
        stroke: #2e6290;
      }

      .st4, .st11 {
        stroke: #eaebed;
      }

      .st34 {
        fill: #ece5af;
      }

      .st35, .st29, .st32 {
        font-family: TimesNewRomanPSMT, 'Times New Roman';
      }

      .st35, .st28, .st36 {
        font-size: 7.5px;
      }

      .st5 {
        stroke-dasharray: 7.2 7.2;
      }

      .st5, .st7, .st8, .st9, .st10, .st12, .st15, .st21 {
        stroke: #231f20;
      }

      .st37 {
        fill: #d2e1ca;
      }

      .st6 {
        stroke: #c0e3d1;
      }

      .st38 {
        clip-path: url(#clippath-17);
      }

      .st39 {
        clip-path: url(#clippath-19);
      }

      .st40 {
        clip-path: url(#clippath-11);
      }

      .st41 {
        clip-path: url(#clippath-16);
      }

      .st42 {
        clip-path: url(#clippath-18);
      }

      .st43 {
        clip-path: url(#clippath-10);
      }

      .st44 {
        clip-path: url(#clippath-15);
      }

      .st45 {
        clip-path: url(#clippath-13);
      }

      .st46 {
        clip-path: url(#clippath-14);
      }

      .st47 {
        clip-path: url(#clippath-12);
      }

      .st48 {
        clip-path: url(#clippath-20);
      }

      .st49 {
        clip-path: url(#clippath-21);
      }

      .st50 {
        letter-spacing: 0em;
      }

      .st51 {
        clip-path: url(#clippath-1);
      }

      .st52 {
        clip-path: url(#clippath-3);
      }

      .st53 {
        clip-path: url(#clippath-4);
      }

      .st54 {
        clip-path: url(#clippath-2);
      }

      .st55 {
        clip-path: url(#clippath-7);
      }

      .st56 {
        clip-path: url(#clippath-6);
      }

      .st57 {
        clip-path: url(#clippath-9);
      }

      .st58 {
        clip-path: url(#clippath-8);
      }

      .st59 {
        clip-path: url(#clippath-5);
      }

      .st60 {
        letter-spacing: 0em;
      }

      .st61 {
        fill-rule: evenodd;
      }

      .st7 {
        stroke-dasharray: 3.9 3.9;
      }

      .st9, .st15, .st19 {
        stroke-width: .6px;
      }

      .st62 {
        letter-spacing: 0em;
      }

      .st63 {
        fill: #fff;
      }

      .st64 {
        letter-spacing: 0em;
      }

      .st65 {
        letter-spacing: 0em;
      }

      .st66 {
        letter-spacing: 0em;
      }

      .st67 {
        letter-spacing: 0em;
      }

      .st68 {
        letter-spacing: 0em;
      }

      .st69 {
        letter-spacing: 0em;
      }

      .st70 {
        letter-spacing: 0em;
      }

      .st71 {
        letter-spacing: 0em;
      }

      .st72 {
        letter-spacing: 0em;
      }

      .st11, .st18 {
        stroke-width: 4.2px;
      }

      .st73 {
        letter-spacing: 0em;
      }

      .st30, .st36 {
        font-family: CambriaMath, CambriaMath;
      }

      .st74 {
        letter-spacing: 0em;
      }

      .st75 {
        letter-spacing: 0em;
      }

      .st76 {
        letter-spacing: 0em;
      }

      .st12 {
        stroke-dasharray: 5.8 5.8;
      }

      .st13, .st24 {
        stroke: #808285;
      }

      .st14 {
        stroke: #262324;
      }

      .st15 {
        stroke-dasharray: 3.3 3.3;
      }

      .st77 {
        fill: #f15e6a;
      }

      .st17 {
        stroke: #f15e6a;
      }

      .st19, .st20, .st22 {
        stroke: #ece5af;
      }

      .st78 {
        letter-spacing: 0em;
      }

      .st79 {
        letter-spacing: 0em;
      }

      .st80 {
        fill: #eaebed;
      }

      .st81 {
        letter-spacing: 0em;
      }

      .st82 {
        letter-spacing: 0em;
      }

      .st83 {
        letter-spacing: 0em;
      }

      .st84 {
        letter-spacing: 0em;
      }

      .st85 {
        letter-spacing: 0em;
      }

      .st86 {
        letter-spacing: 0em;
      }

      .st87 {
        fill: #e6e7e8;
      }

      .st88 {
        letter-spacing: 0em;
      }

      .st89 {
        letter-spacing: 0em;
      }

      .st90 {
        letter-spacing: 0em;
      }

      .st91 {
        letter-spacing: 0em;
      }

      .st92 {
        letter-spacing: 0em;
      }

      .st93 {
        letter-spacing: 0em;
      }

      .st94 {
        letter-spacing: 0em;
      }

      .st95 {
        letter-spacing: 0em;
      }

      .st96 {
        letter-spacing: 0em;
      }

      .st97 {
        letter-spacing: 0em;
      }

      .st98 {
        fill: #babcbe;
      }

      .st99 {
        clip-path: url(#clippath);
      }

      .st100 {
        fill: #c0e3d1;
      }

      .st101 {
        letter-spacing: 0em;
      }

      .st102 {
        letter-spacing: 0em;
      }

      .st103 {
        letter-spacing: 0em;
      }

      .st104 {
        letter-spacing: 0em;
      }

      .st105 {
        letter-spacing: 0em;
      }

      .st106 {
        letter-spacing: 0em;
      }

      .st107 {
        letter-spacing: 0em;
      }

      .st108 {
        letter-spacing: 0em;
      }

      .st109 {
        letter-spacing: 0em;
      }
    </style>
    <clipPath id="clippath">
      <rect class="st0" x="7.5" y="526.3" width="290.5" height="200.5"/>
    </clipPath>
    <clipPath id="clippath-1">
      <rect class="st0" x="7.5" y="526.3" width="290.5" height="200.5"/>
    </clipPath>
    <clipPath id="clippath-2">
      <rect class="st0" x="260.4" y="531" width="10.4" height="174.1"/>
    </clipPath>
    <clipPath id="clippath-3">
      <rect class="st0" x="260.6" y="531.2" width="10.1" height="173.7"/>
    </clipPath>
    <clipPath id="clippath-4">
      <rect class="st0" x="-11.7" y="518.3" width="308.7" height="210"/>
    </clipPath>
    <clipPath id="clippath-5">
      <rect class="st0" x="36.2" y="542.2" width="225.5" height="167"/>
    </clipPath>
    <clipPath id="clippath-6">
      <rect class="st0" x="36.2" y="542.2" width="225.5" height="167"/>
    </clipPath>
    <clipPath id="clippath-7">
      <rect class="st0" x="36.2" y="542.2" width="225.5" height="167"/>
    </clipPath>
    <clipPath id="clippath-8">
      <rect class="st0" x="36.2" y="542.2" width="225.5" height="167"/>
    </clipPath>
    <clipPath id="clippath-9">
      <rect class="st0" x="33.4" y="534.9" width="247.8" height="165.2"/>
    </clipPath>
    <clipPath id="clippath-10">
      <rect class="st0" x="33.4" y="534.9" width="247.8" height="165.2"/>
    </clipPath>
    <clipPath id="clippath-11">
      <rect class="st0" x="30.1" y="103" width="533.8" height="411.4"/>
    </clipPath>
    <clipPath id="clippath-12">
      <rect class="st0" x="30.1" y="103" width="533.7" height="411.3"/>
    </clipPath>
    <clipPath id="clippath-13">
      <rect class="st0" x="50.1" y="122.2" width="513.7" height="391.5"/>
    </clipPath>
    <clipPath id="clippath-14">
      <rect class="st0" x="462" y="323.8" width="66.2" height="105.2"/>
    </clipPath>
    <clipPath id="clippath-15">
      <rect class="st0" x="461.8" y="323.5" width="66.6" height="105.5"/>
    </clipPath>
    <clipPath id="clippath-16">
      <rect class="st0" x="453.7" y="319.4" width="80.5" height="120.9"/>
    </clipPath>
    <clipPath id="clippath-17">
      <rect class="st0" x="78.7" y="324.5" width="73.3" height="109.8"/>
    </clipPath>
    <clipPath id="clippath-18">
      <rect class="st0" x="78.7" y="324.5" width="73.3" height="109.8"/>
    </clipPath>
    <clipPath id="clippath-19">
      <rect class="st0" x="294.4" y="516.2" width="291.8" height="204.7"/>
    </clipPath>
    <clipPath id="clippath-20">
      <rect class="st0" x="294.4" y="516.2" width="291.8" height="204.7"/>
    </clipPath>
    <clipPath id="clippath-21">
      <rect class="st0" x="314.4" y="541.1" width="258.7" height="165.3"/>
    </clipPath>
  </defs>
  <g class="st99">
    <g class="st51">
      <rect class="st63" x="7.5" y="526.3" width="290.5" height="200.5"/>
    </g>
    <text class="st28" transform="translate(46.2 635.4) rotate(-90)"><tspan x="0" y="0">!</tspan></text>
    <text class="st36" transform="translate(46.2 630.7) rotate(-90)"><tspan x="0" y="0">!</tspan></text>
    <path class="st61" d="M40.6,622.7h.3c.2.5.6.9,1.1,1.2.5.3,1.2.4,2.1.4s1.6-.1,2.1-.4c.6-.3.9-.7,1.1-1.3h.3c-.2.8-.6,1.4-1.2,1.7-.6.4-1.4.6-2.3.6s-1.6-.2-2.3-.6c-.6-.4-1-.9-1.2-1.6ZM40.6,607.1c.2-.7.6-1.3,1.2-1.6.6-.4,1.4-.6,2.3-.6s1.6.2,2.3.6c.6.4,1,.9,1.2,1.6h-.3c-.2-.5-.6-.9-1.1-1.2-.6-.3-1.3-.4-2.1-.4s-1.5.1-2.1.4-.9.7-1.1,1.3h-.3Z"/>
    <text class="st36" transform="translate(46.2 622.4) rotate(-90)"><tspan class="st94" x="0" y="0">&quot;</tspan><tspan class="st106" x="2.5" y="0">#</tspan><tspan class="st102" x="6.3" y="0">$</tspan><tspan x="10.1" y="0">$</tspan></text>
    <text class="st36" transform="translate(46.2 604.3) rotate(-90)"><tspan x="0" y="0">%</tspan></text>
    <text class="st36" transform="translate(46.2 602.7) rotate(-90)"><tspan x="0" y="0">&amp;</tspan><tspan class="st83" x="4.5" y="0">&apos;</tspan><tspan x="5.9" y="0">(</tspan></text>
    <text class="st36" transform="translate(46.2 590.1) rotate(-90)"><tspan x="0" y="0">%</tspan></text>
    <text class="st28" transform="translate(46.2 588.5) rotate(-90)"><tspan x="0" y="0">!</tspan></text>
    <text class="st28" transform="translate(46.2 583.7) rotate(-90)"><tspan x="0" y="0">&quot;</tspan></text>
    <text class="st28" transform="translate(46.2 579.6) rotate(-90)"><tspan x="0" y="0">#</tspan></text>
    <text class="st28" transform="translate(46.2 577.7) rotate(-90)"><tspan x="0" y="0">$</tspan></text>
    <text class="st28" transform="translate(46.2 573.5) rotate(-90)"><tspan x="0" y="0">#</tspan></text>
    <text class="st28" transform="translate(46.2 571.6) rotate(-90)"><tspan class="st70" x="0" y="0">%</tspan><tspan x="7.5" y="0">&amp;&apos;(</tspan></text>
    <text class="st28" transform="translate(169.3 701.2)"><tspan x="0" y="0">)*+</tspan><tspan class="st106" x="10.5" y="0">,</tspan><tspan class="st83" x="12.4" y="0">-</tspan><tspan x="14.9" y="0">+#</tspan><tspan class="st64" x="22.9" y="0">.</tspan><tspan class="st50" x="24.8" y="0">*</tspan><tspan class="st70" x="28.6" y="0">/</tspan><tspan x="30.7" y="0">+#</tspan><tspan class="st94" x="38.7" y="0">0</tspan><tspan class="st86" x="42.4" y="0">-</tspan><tspan class="st89" x="44.9" y="0">1</tspan><tspan x="48.6" y="0">+*</tspan><tspan class="st86" x="56.6" y="0">2</tspan><tspan class="st70" x="60.3" y="0">/3/</tspan><tspan x="68.3" y="0">+4#5</tspan></text>
    <text class="st28" transform="translate(245.8 701.2)"><tspan class="st109" x="0" y="0">6</tspan><tspan x="3.8" y="0">7</tspan></text>
    <g class="st54">
      <g class="st52">
        <g class="st53">
          <image width="691" height="468" transform="translate(-11.7 518.3) scale(.4)" xlink:href="Figure6-1.png"/>
        </g>
      </g>
    </g>
    <path d="M38.4,534.1l-1.9-3.7-1.9,3.7h3.7ZM37.2,705.7v-172.3s-1.2,0-1.2,0v172.3s1.2,0,1.2,0Z"/>
    <path d="M253.2,703.9l3.7,1.9-3.7,1.9v-3.7ZM36.6,705.1h217.3v1.2H36.6v-1.2Z"/>
    <text class="st35" transform="translate(15.9 540.6)"><tspan x="0" y="0">!&quot;!!</tspan></text>
    <text class="st35" transform="translate(14.6 626.8)"><tspan x="0" y="0">#</tspan></text>
    <text class="st35" transform="translate(17.1 626.8)"><tspan x="0" y="0">!&quot;!$</tspan></text>
    <text class="st35" transform="translate(14.6 706)"><tspan x="0" y="0">#</tspan></text>
    <text class="st35" transform="translate(17.1 706)"><tspan x="0" y="0">!&quot;%&amp;</tspan></text>
    <text class="st35" transform="translate(36.3 720.1)"><tspan x="0" y="0">#</tspan></text>
    <text class="st35" transform="translate(38.8 720.1)"><tspan x="0" y="0">&amp;</tspan></text>
    <text class="st35" transform="translate(112.1 720)"><tspan x="0" y="0">!</tspan></text>
    <text class="st35" transform="translate(150.8 720)"><tspan x="0" y="0">%</tspan></text>
    <text class="st35" transform="translate(188.5 719.6)"><tspan x="0" y="0">&amp;</tspan></text>
    <text class="st35" transform="translate(72.4 720.6)"><tspan x="0" y="0">#</tspan></text>
    <text class="st35" transform="translate(74.9 720.6)"><tspan x="0" y="0">%</tspan></text>
    <text class="st35" transform="translate(227.9 720.1)"><tspan x="0" y="0">&apos;</tspan></text>
    <text class="st28" transform="translate(283 668.2) rotate(-90)"><tspan class="st70" x="0" y="0">8</tspan><tspan class="st81" x="3.8" y="0">2</tspan><tspan class="st92" x="7.5" y="0">1</tspan><tspan class="st106" x="11.2" y="0">,9</tspan><tspan x="16.9" y="0">:</tspan><tspan class="st106" x="19.4" y="0">,</tspan><tspan class="st81" x="21.3" y="0">;</tspan><tspan x="23.8" y="0">#&lt;*</tspan><tspan class="st67" x="35.5" y="0">33</tspan><tspan class="st75" x="43.1" y="0">5#&amp;#</tspan><tspan class="st70" x="60.6" y="0">$</tspan><tspan x="64.3" y="0">#</tspan><tspan class="st81" x="68.1" y="0">-</tspan><tspan class="st75" x="70.6" y="0">=&gt;#?#</tspan><tspan class="st70" x="90.3" y="0">$</tspan><tspan class="st75" x="94.1" y="0">#4</tspan><tspan class="st106" x="101.6" y="0">,</tspan><tspan class="st94" x="103.5" y="0">1</tspan><tspan class="st75" x="107.2" y="0">7</tspan></text>
    <text class="st35" transform="translate(278.6 702.6)"><tspan x="0" y="0">!&quot;!</tspan></text>
    <text class="st35" transform="translate(275.7 537.2)"><tspan x="0" y="0">%&quot;!</tspan></text>
    <g class="st59">
      <g class="st56">
        <rect class="st34" x="115.7" y="553.1" width="18.8" height="151.5"/>
        <rect class="st19" x="115.7" y="553.1" width="18.8" height="151.5"/>
        <path class="st34" d="M125.1,704.1v-150.3,150.3Z"/>
        <line class="st9" x1="125.1" y1="553.8" x2="125.1" y2="555.4"/>
        <line class="st15" x1="125.1" y1="558.7" x2="125.1" y2="700.8"/>
        <line class="st9" x1="125.1" y1="702.5" x2="125.1" y2="704.1"/>
      </g>
    </g>
    <g class="st55">
      <g class="st58">
        <g class="st57">
          <g class="st43">
            <image width="1536" height="1024" transform="translate(33.4 534.9) scale(.2)" xlink:href="Figure6-2.png"/>
          </g>
        </g>
      </g>
    </g>
  </g>
  <g class="st40">
    <g class="st47">
      <rect class="st63" x="30.1" y="103" width="533.7" height="411.3"/>
    </g>
    <g class="st45">
      <rect class="st100" x="56.5" y="425.3" width="239.5" height="29.6"/>
      <rect class="st6" x="56.5" y="425.3" width="239.5" height="29.6"/>
      <rect class="st34" x="297.1" y="123.6" width="41.2" height="331.8"/>
      <rect class="st22" x="297.1" y="123.6" width="41.2" height="331.8"/>
      <path class="st34" d="M317.7,457V125.2v331.8Z"/>
      <line class="st10" x1="317.7" y1="125.2" x2="317.7" y2="128.7"/>
      <line class="st5" x1="317.7" y1="135.9" x2="317.7" y2="449.8"/>
      <line class="st10" x1="317.7" y1="453.4" x2="317.7" y2="457"/>
      <path class="st80" d="M63.6,449.8c0-.9,20.6-1,52.3-6.3,24.2-4,34.9-7.5,38.3-8.7,8.4-2.8,22-7.5,37.3-17.6,11.9-7.8,19.3-15.1,29.9-25.8,9.6-9.7,17.1-18.4,31.3-36.3,18.8-23.7,32.4-42.2,34.7-45.2,9.9-13.4,23.4-32.2,50-69.3,8.9-12.5,16.5-22.9,28.2-36.3,13.8-15.7,23.8-24.5,27-27.3,13.9-12,25.6-19.3,28.7-21.2,5.8-3.6,18.2-11.2,34.9-17.4,32.7-12.1,65.6-12.8,66.2-10.1.1.6-1.5,1.1-15.7,7.1-14.9,6.2-22.3,9.3-28.9,12.3-7.6,3.5-16.3,7.6-26.4,14.3-10.7,7.1-17.7,13.7-26.2,21.8-9.3,8.9-15.5,15.8-25,26.7-6.1,6.9-15.8,18-27,32.5-11.5,14.9-12.4,17.5-31.5,44.8-1.8,2.6-14.6,20.2-39.9,55.1-12.3,17-18.7,25.7-26,33.7-15,16.4-28.2,26.5-31.7,29.1-8.2,6.1-22.6,16-42.4,24.8-17.9,7.9-33.8,12.2-45.4,14.5-14.3,2.9-24.6,3.5-42.9,4.6-26.1,1.5-49.7,1-49.7,0"/>
      <path class="st11" d="M63.6,449.8c0-.9,20.6-1,52.3-6.3,24.2-4,34.9-7.5,38.3-8.7,8.4-2.8,22-7.5,37.3-17.6,11.9-7.8,19.3-15.1,29.9-25.8,9.6-9.7,17.1-18.4,31.3-36.3,18.8-23.7,32.4-42.2,34.7-45.2,9.9-13.4,23.4-32.2,50-69.3,8.9-12.5,16.5-22.9,28.2-36.3,13.8-15.7,23.8-24.5,27-27.3,13.9-12,25.6-19.3,28.6-21.2,5.8-3.6,18.2-11.2,34.9-17.4,32.7-12.1,65.6-12.8,66.2-10.1.1.6-1.5,1.1-15.7,7.1-14.9,6.2-22.3,9.3-28.9,12.3-7.6,3.5-16.3,7.6-26.4,14.3-10.7,7.1-17.7,13.7-26.2,21.8-9.3,8.9-15.5,15.8-25,26.7-6.1,6.9-15.8,18-27,32.5-11.5,14.9-12.4,17.5-31.5,44.8-1.8,2.6-14.6,20.2-39.9,55.1-12.3,17-18.7,25.7-26,33.7-15,16.4-28.2,26.5-31.7,29.1-8.2,6.1-22.6,16-42.4,24.8-17.9,7.9-33.8,12.2-45.4,14.5-14.3,2.9-24.6,3.5-42.9,4.6-26.1,1.5-49.7,1-49.7,0Z"/>
      <path class="st18" d="M67.7,449.9c30.5,1.1,55.4-2.6,72.6-6.2,17.9-3.8,37-7.9,59.2-20,22.3-12.1,35.8-25.9,54-44.4,15.5-15.7,25.2-28.3,43.1-51.5,7.2-9.3,8.1-10.8,40.5-55.4,24-33,29.1-39.9,37.3-50.2,15.8-19.9,23.9-30.1,37.3-42.5,9.1-8.4,21.6-20,39.9-30.3,13.1-7.3,36.3-18,69-21"/>
      <line class="st34" x1="128.5" y1="179.8" x2="92.6" y2="179.8"/>
      <line class="st10" x1="128.5" y1="179.8" x2="125" y2="179.8"/>
      <line class="st12" x1="119.2" y1="179.8" x2="99" y2="179.8"/>
      <line class="st10" x1="96.1" y1="179.8" x2="92.6" y2="179.8"/>
      <rect class="st80" x="91.9" y="161.9" width="37.3" height="10.4"/>
      <rect class="st4" x="91.9" y="161.9" width="37.3" height="10.4"/>
      <rect class="st34" x="91.4" y="189.7" width="38.3" height="11"/>
      <rect class="st22" x="91.4" y="189.7" width="38.3" height="11"/>
      <rect class="st33" x="91.9" y="149.1" width="37.3" height="5.2"/>
      <rect class="st3" x="91.9" y="149.1" width="37.3" height="5.2"/>
      <rect class="st77" x="339.7" y="425.3" width="212" height="30.1"/>
      <rect class="st17" x="339.7" y="425.3" width="212" height="30.1"/>
      <rect class="st34" x="298.6" y="477.9" width="40.7" height="29.6"/>
      <rect class="st22" x="298.6" y="477.9" width="40.7" height="29.6"/>
      <rect class="st100" x="57.6" y="477.9" width="239.5" height="29.6"/>
      <rect class="st6" x="57.6" y="477.9" width="239.5" height="29.6"/>
      <rect class="st77" x="340.6" y="477.9" width="212" height="30.1"/>
      <rect class="st17" x="340.6" y="477.9" width="212" height="30.1"/>
    </g>
    <text class="st32" transform="translate(137.9 153.6)"><tspan class="st85" x="0" y="0">!</tspan><tspan x="3.4" y="0">&quot;#</tspan><tspan class="st108" x="12.6" y="0">$</tspan><tspan class="st65" x="17.8" y="0">%%</tspan><tspan class="st60" x="34.8" y="0">&amp;&apos;</tspan><tspan class="st96" x="44.6" y="0">(</tspan><tspan x="48" y="0">&apos;&apos;</tspan><tspan class="st95" x="51.6" y="0">)</tspan><tspan class="st108" x="55" y="0">*</tspan><tspan x="60.1" y="0">+</tspan><tspan class="st107" x="65.9" y="0">*</tspan><tspan x="71" y="0">,</tspan><tspan class="st65" x="73.6" y="0">-.</tspan><tspan x="79.6" y="0">/</tspan></text>
    <text class="st32" transform="translate(137.9 168.8)"><tspan x="0" y="0">012&apos;</tspan><tspan class="st108" x="17.1" y="0">3</tspan><tspan class="st73" x="22.3" y="0">,</tspan><tspan class="st108" x="24.8" y="0">*</tspan><tspan x="30" y="0">4</tspan><tspan class="st65" x="35.1" y="0">-</tspan><tspan x="38.5" y="0">5</tspan><tspan class="st65" x="43.6" y="0">%</tspan><tspan class="st108" x="52.1" y="0">*</tspan><tspan x="57.3" y="0">&apos;</tspan><tspan class="st65" x="59.1" y="0">-</tspan><tspan x="62.5" y="0">6</tspan><tspan class="st65" x="67.6" y="0">.</tspan><tspan class="st108" x="70.2" y="0">*</tspan><tspan x="75.4" y="0">,+</tspan><tspan class="st107" x="83.7" y="0">$</tspan><tspan x="88.8" y="0">%</tspan></text>
    <text class="st32" transform="translate(137.8 183.3)"><tspan class="st71" x="0" y="0">7</tspan><tspan x="5.1" y="0">8,</tspan><tspan class="st108" x="12.8" y="0">*</tspan><tspan class="st95" x="17.9" y="0">)</tspan><tspan class="st60" x="21.3" y="0">89</tspan><tspan class="st65" x="31.5" y="0">%</tspan><tspan x="40" y="0">4&apos;</tspan></text>
    <text class="st32" transform="translate(181.7 183.3)"><tspan class="st108" x="0" y="0">:</tspan><tspan x="2.9" y="0">&apos;</tspan></text>
    <text class="st32" transform="translate(188.4 183.3)"><tspan x="0" y="0">&quot;</tspan><tspan class="st65" x="4.2" y="0">;</tspan><tspan class="st108" x="7" y="0">*$</tspan><tspan x="17.3" y="0">6&amp;</tspan></text>
    <g class="st46">
      <g class="st44">
        <g class="st41">
          <image width="512" height="768" transform="translate(453.7 319.4) scale(.2)" xlink:href="Figure6-3.png"/>
        </g>
      </g>
    </g>
    <text class="st32" transform="translate(138.8 198.7)"><tspan class="st108" x="0" y="0">:</tspan><tspan x="2.9" y="0">&apos;</tspan></text>
    <text class="st32" transform="translate(145.5 198.7)"><tspan x="0" y="0">012&apos;</tspan><tspan class="st90" x="17.1" y="0">&lt;=</tspan><tspan x="28.6" y="0">&gt;</tspan></text>
    <g class="st38">
      <g class="st42">
        <image width="512" height="768" transform="translate(151.9 324.5) rotate(-180) scale(.1 -.1)" xlink:href="Figure6-4.png"/>
      </g>
    </g>
    <text class="st26" transform="translate(430.6 451.2)"><tspan x="0" y="0">!&quot;#</tspan><tspan class="st107" x="14.2" y="0">$</tspan><tspan class="st84" x="19.3" y="0">%</tspan><tspan class="st76" x="29.5" y="0">#&amp;</tspan></text>
    <text class="st26" transform="translate(462.1 451.2)"><tspan class="st71" x="0" y="0">&apos;</tspan><tspan x="2.9" y="0">&quot;</tspan><tspan class="st71" x="8.5" y="0">(</tspan><tspan class="st76" x="12" y="0">#&amp;</tspan><tspan class="st95" x="25.6" y="0">)</tspan><tspan class="st84" x="28.9" y="0">%</tspan><tspan class="st95" x="39.1" y="0">*</tspan><tspan class="st76" x="44.1" y="0">#&quot;</tspan><tspan class="st84" x="54.9" y="0">+</tspan><tspan class="st66" x="60.7" y="0">(,(</tspan><tspan x="70.1" y="0">#-&amp;.</tspan></text>
    <text class="st26" transform="translate(534.7 451.2)"><tspan class="st107" x="0" y="0">/</tspan><tspan x="2.9" y="0">0</tspan></text>
    <path d="M552.2,455l5.1,2.6-5.1,2.5v-5.1ZM54.3,456.7h498.7v1.7H54.3v-1.7Z"/>
    <path d="M56.8,144.8l-2.5-5.1-2.6,5.1h5.1ZM55.1,458.1V144s-1.7,0-1.7,0v314.2s1.7,0,1.7,0Z"/>
    <text class="st32" transform="translate(289.1 471.3)"><tspan x="0" y="0">?</tspan></text>
    <text class="st32" transform="translate(361.2 471.5)"><tspan x="0" y="0">@</tspan></text>
    <text class="st32" transform="translate(211.2 471.3)"><tspan x="0" y="0">A</tspan></text>
    <text class="st32" transform="translate(214.6 471.3)"><tspan x="0" y="0">@</tspan></text>
    <text class="st32" transform="translate(137.9 472)"><tspan x="0" y="0">A</tspan></text>
    <text class="st32" transform="translate(141.3 472)"><tspan x="0" y="0">B</tspan></text>
    <text class="st26" transform="translate(72.4 171.4) rotate(-90)"><tspan class="st78" x="0" y="0">1</tspan><tspan class="st73" x="4.6" y="0">&amp;.2&quot;</tspan><tspan class="st65" x="26.4" y="0">,,</tspan><tspan x="31.6" y="0">0</tspan></text>
    <text class="st32" transform="translate(41.6 452)"><tspan x="0" y="0">?</tspan></text>
    <text class="st32" transform="translate(37.7 393)"><tspan x="0" y="0">?CB</tspan></text>
    <text class="st32" transform="translate(37.7 334.2)"><tspan x="0" y="0">?CD</tspan></text>
    <text class="st32" transform="translate(38 275.4)"><tspan x="0" y="0">?CE</tspan></text>
    <text class="st32" transform="translate(37.7 216.5)"><tspan x="0" y="0">?CF</tspan></text>
    <text class="st32" transform="translate(41.7 157.7)"><tspan x="0" y="0">@</tspan></text>
    <text class="st32" transform="translate(507.8 471.5)"><tspan x="0" y="0">G</tspan></text>
    <text class="st27" transform="translate(52.4 118.2)"><tspan class="st62" x="0" y="0">!</tspan><tspan x="4" y="0">&quot;</tspan></text>
    <text class="st32" transform="translate(182.8 496.3)"><tspan class="st84" x="0" y="0">H</tspan><tspan class="st107" x="7.3" y="0">$</tspan><tspan class="st60" x="12.5" y="0">#*</tspan></text>
    <text class="st32" transform="translate(425.2 495.9)"><tspan class="st95" x="0" y="0">&lt;</tspan><tspan class="st66" x="5.7" y="0">-</tspan><tspan x="9.1" y="0">I8</tspan></text>
    <text class="st32" transform="translate(448.1 495.9)"><tspan x="0" y="0">J</tspan><tspan class="st71" x="4" y="0">-</tspan><tspan x="7.4" y="0">)</tspan></text>
    <text class="st32" transform="translate(461.7 495.9)"><tspan x="0" y="0">K</tspan></text>
  </g>
  <g class="st39">
    <g class="st48">
      <rect class="st63" x="294.4" y="516.2" width="291.8" height="204.7"/>
    </g>
    <text class="st25" transform="translate(511.5 702.3)"><tspan x="0" y="0">!&quot;#</tspan><tspan class="st104" x="8.3" y="0">$</tspan><tspan class="st79" x="11.4" y="0">%</tspan><tspan x="17.3" y="0">#&amp;</tspan></text>
    <text class="st25" transform="translate(530 702.3)"><tspan class="st69" x="0" y="0">&apos;</tspan><tspan x="1.7" y="0">&quot;</tspan><tspan class="st68" x="5" y="0">(</tspan><tspan x="7" y="0">#&amp;</tspan><tspan class="st93" x="15" y="0">)</tspan><tspan class="st79" x="17" y="0">%</tspan><tspan class="st93" x="23" y="0">*</tspan><tspan x="26" y="0">#&quot;</tspan><tspan class="st82" x="32.3" y="0">+</tspan><tspan class="st69" x="35.7" y="0">(,(</tspan><tspan class="st74" x="41.3" y="0">#-&amp;.</tspan></text>
    <text class="st25" transform="translate(572.8 702.3)"><tspan class="st105" x="0" y="0">/</tspan><tspan class="st74" x="1.7" y="0">0</tspan></text>
    <text class="st25" transform="translate(460 538.8)"><tspan class="st97" x="0" y="0">1</tspan><tspan x="3" y="0">&amp;</tspan></text>
    <text class="st25" transform="translate(464.2 538.8)"><tspan x="0" y="0">234&amp;</tspan><tspan class="st68" x="14" y="0">5</tspan><tspan class="st93" x="17" y="0">6</tspan><tspan x="20" y="0">)</tspan></text>
    <g class="st49">
      <rect class="st34" x="462.3" y="542.8" width="22.1" height="162.6"/>
      <rect class="st20" x="462.3" y="542.8" width="22.1" height="162.6"/>
      <path class="st87" d="M328.8,544.6c0,.3,18-1.7,41.4,4.4,6.8,1.8,13.5,4.3,26.8,9.4,23.9,9.1,22.6,10.1,33.1,13.3,7.8,2.4,24.2,7.2,45,5.5,12.8-1,22.4-4,30.7-6.7,12.1-3.9,16.1-6.6,25.2-10.5,5.5-2.3,9.7-3.8,14.2-5.3,6-2,13.8-4.3,23.2-6.2.2-.4.3-1,.4-1.5.2-.9.2-1.8.2-2.5-1.4.1-3.4.3-5.8.6-10.6,1.4-18.6,3.8-24.4,5.6-15.4,4.9-23.1,7.2-30.4,10.4-12,5.3-17.3,9.2-28.9,11.1-5.9.9-10.6.9-13.3.8-8.8-.3-14.9-2.2-30.2-7.6-15-5.2-16.9-6.1-24.2-8.6-4.9-1.7-18.2-6.2-29.9-8.9-29.2-6.8-53.4-3.7-53.4-3.4"/>
      <path class="st2" d="M328.8,544.6c0,.3,18-1.7,41.4,4.4,6.8,1.8,13.5,4.3,26.8,9.4,23.9,9.1,22.6,10.1,33.1,13.3,7.8,2.4,24.2,7.2,45,5.5,12.8-1,22.4-4,30.7-6.7,12.1-3.9,16.1-6.6,25.2-10.5,5.5-2.3,9.7-3.8,14.2-5.3,6-2,13.8-4.3,23.2-6.2.2-.4.3-1,.4-1.5.2-.9.2-1.8.2-2.5-1.4.1-3.4.3-5.8.6-10.6,1.4-18.6,3.8-24.4,5.6-15.4,4.9-23.1,7.2-30.4,10.4-12,5.3-17.3,9.2-28.9,11.1-5.9.9-10.6.9-13.3.8-8.8-.3-14.9-2.2-30.2-7.6-15-5.2-16.9-6.1-24.2-8.6-4.9-1.7-18.2-6.2-29.9-8.9-29.2-6.8-53.4-3.7-53.4-3.4Z"/>
      <line class="st8" x1="318.4" y1="542.8" x2="569.4" y2="542.8"/>
      <path class="st31" d="M328.7,545.1c0,.2,9.6,0,22.8,2.6,4.5.9,9.7,2,15.8,4.3,9.8,3.7,16,8.5,27.1,17.2,8.7,6.8,8.8,7.8,21.8,18.1,9.2,7.3,12.5,9.5,15.3,11.2,4.2,2.5,11.1,6.5,20.2,9,6.2,1.7,20.7,4.6,37-.3,9.6-2.9,15.6-7.3,26.7-15.4,13.7-10.1,15.4-14.8,27.9-22.3,15.4-9.3,17.2-9.9,17.2-9.9,2-1.1,3.3-1.8,4.9-2.8,3.3-2.2,3.8-2.3,4-3,.3-1.1,0-1.9-.3-2.8-.5-1.8-.2-3.3-.3-3.3-.1,0-.3.9-.3.9.4-.5.3-.8.3-.9-.3-.5-2,.2-5.9,1.7-4.5,1.7-4.5,1.7-4.5,1.7-2,.8-2.7,1.1-9,4.1-7.1,3.4-7.6,3.3-10.8,5-2.4,1.2-8,4.3-18,11.6-10.8,7.9-21.5,17.2-23.3,18.8-4.5,3.9-6.9,6.2-11.5,8.9-4.3,2.5-9.3,5.4-16.1,5.4-4.8,0-8.3-1.4-11.8-2.8-4.9-2-7.4-4.1-15.9-10.6-11.7-8.9-9.3-6.8-16.5-12.5-9.8-7.7-10.3-8.6-15.3-12-7.9-5.6-14.5-8.9-16-9.7-15.2-7.6-28.7-9.6-37-10.8-15.9-2.3-28.3-1.3-28.3-1.1"/>
      <path class="st24" d="M328.7,545.1c0,.2,9.6,0,22.8,2.6,4.5.9,9.7,2,15.8,4.3,9.8,3.7,16,8.5,27.1,17.2,8.7,6.8,8.8,7.8,21.8,18.1,9.2,7.3,12.5,9.5,15.3,11.2,4.2,2.5,11.1,6.5,20.2,9,6.2,1.7,20.7,4.6,37-.3,9.6-2.9,15.6-7.3,26.7-15.4,13.7-10.1,15.4-14.8,27.9-22.3,15.4-9.3,17.2-9.9,17.2-9.9,2-1.1,3.3-1.8,4.9-2.8,3.3-2.2,3.8-2.3,4-3,.3-1.1,0-1.9-.3-2.8-.5-1.8-.2-3.3-.3-3.3-.1,0-.3.9-.3.9.4-.5.3-.8.3-.9-.3-.5-2,.2-5.9,1.7-4.5,1.7-4.5,1.7-4.5,1.7-2,.8-2.7,1.1-9,4.1-7.1,3.4-7.6,3.3-10.8,5-2.4,1.2-8,4.3-18,11.6-10.8,7.9-21.5,17.2-23.3,18.8-4.5,3.9-6.9,6.2-11.5,8.9-4.3,2.5-9.3,5.4-16.1,5.4-4.8,0-8.3-1.4-11.8-2.8-4.9-2-7.4-4.1-15.9-10.6-11.7-8.9-9.3-6.8-16.5-12.5-9.8-7.7-10.3-8.6-15.3-12-7.9-5.6-14.5-8.9-16-9.7-15.2-7.6-28.7-9.6-37-10.8-15.9-2.3-28.3-1.3-28.3-1.1Z"/>
      <path class="st2" d="M328.8,544.6c14.6-.8,25.9.4,33.1,1.5,8,1.2,15.3,3,17.6,3.7,4.9,1.3,8.5,2.4,12.3,3.6,2.3.7,8.2,2.6,15.8,5.5,6.8,2.5,12.5,4.9,13.6,5.3,5.5,2.3,6.4,2.8,9.8,4,3.3,1.2,6,1.9,11.3,3.3,5.3,1.4,8,2.2,10.7,2.6,4.9.8,8.7,1,11.2,1.1,3.2.1,7.5.2,12.9-.4,5.6-.7,9.7-1.9,14.4-3.4,2.8-.9,6.1-2.1,12.7-4.5,4.7-1.7,7.8-2.9,12.1-4.6,7.5-3,8-3.4,13-5.3,3.3-1.2,5.7-2,10.4-3.4,4.2-1.3,8-2.5,12.8-3.8,4.1-1.1,9.6-2.4,16.4-3.6"/>
      <line class="st87" x1="320.2" y1="679.3" x2="338.2" y2="679.3"/>
      <line class="st16" x1="320.2" y1="679.3" x2="338.2" y2="679.3"/>
      <path class="st24" d="M339,545.1c4.6.3,10.8,1,18,2.6,6.3,1.4,11,3,14.5,4.2,8.2,2.8,13.9,4.7,20.6,8.6,1.9,1.1,5.5,3.8,12.5,9,7.3,5.4,11,8.1,15.8,12,10,8,9.3,8.4,15.4,12.6,6.9,4.8,12.3,7.6,16.6,9.3,6.3,2.6,10.1,3.3,11.5,3.5,2.2.3,6.1.9,11.1,0,4.7-.7,7.8-2.3,13.1-4.8,1.9-.9,5.4-2.6,9.6-5.5,2.5-1.7,2.5-2,7.6-5.5,1.9-1.3,3.3-2.3,5.7-4.1,2.4-1.8,3.7-2.9,4-3.1,2.3-1.9,2.3-2,4.2-3.6,2.1-1.7,2.3-1.6,5.6-4.2,2.5-1.9,2.3-1.8,4.3-3.4,1.8-1.4,2.3-1.7,4.4-3.2,2.1-1.6,1.9-1.5,3-2.3,1.3-.9,1.6-1,5.1-3.1,1.6-1,2.4-1.5,3.7-2.3,2.3-1.5,2.7-1.8,4.2-2.6,1-.6.8-.4,3.3-1.6,1.4-.7,1.9-1,3-1.5.9-.4,1.5-.7,2.4-1.1,1.3-.6,2.9-1.3,5-2.1,1-.4,2.3-.9,4-1.5.8-.3,1.5-.5,2-.6"/>
      <path class="st37" d="M569,551.7s.5,2.3.5,4.4c0,2,0,3.4-.8,4.7-.6.9-1.3,1.1-2.9,2.1-1,.6-2,1.5-4.2,3.4-5.9,5.1-13.9,14.1-13.9,14.1-2.3,2.5-6.3,7-12.4,14.2-8.8,10.5-10,12.7-16.9,20.4-5.9,6.7-9,10.1-13.6,13.8-3.7,2.9-8.8,7-15.9,9.7-17.7,6.8-34.4.4-36.7-.6-8.6-3.5-13.8-8.4-21.5-15.8-6.4-6.1-8.1-9.1-18.6-21.5-6.2-7.3-13.1-15.2-17.2-19.4-10.7-11.3-21.8-22.2-38.1-28.9-13.6-5.5-26.4-6-26.3-6.9,0-.6,6.5-.1,10.5.2,6.7.5,12.1.9,18.1,2.5,2.3.6,3.8,1.2,17.1,7.5,17.7,8.5,20,9.9,22,11.2,6.8,4.5,11.6,9,14,11.4,4.1,3.9,6.7,6.9,11.1,12.1,6.7,7.8,6.7,8.7,13.2,16.1,1.4,1.6.4.4,11,12.1,3.2,3.5,5.8,6.4,9.7,10.1,6.4,6.1,9.2,7.8,12.6,7.9,2.1.1,3.7-.4,5.6-1.1,5.8-2.1,9.5-5.9,13-9.7,7.3-7.9,11.7-13.5,11.7-13.5,0,0,5.6-6.9,15.4-18.4,3.9-4.5,10.6-12.2,19.4-21.1,3.7-3.7,7.7-7.5,13.4-11.4,1.9-1.3,5.1-3.4,9.7-5.4,0,0,3.9-1.8,10.8-4.2"/>
      <path class="st23" d="M569,551.7s.5,2.3.5,4.4c0,2,0,3.4-.8,4.7-.6.9-1.3,1.1-2.9,2.1-1,.6-2,1.5-4.2,3.4-5.9,5.1-13.9,14.1-13.9,14.1-2.3,2.5-6.3,7-12.4,14.2-8.8,10.5-10,12.7-16.9,20.4-5.9,6.7-9,10.1-13.6,13.8-3.7,2.9-8.8,7-15.9,9.7-17.7,6.8-34.4.4-36.7-.6-8.6-3.5-13.8-8.4-21.5-15.8-6.4-6.1-8.1-9.1-18.6-21.5-6.2-7.3-13.1-15.2-17.2-19.4-10.7-11.3-21.8-22.2-38.1-28.9-13.6-5.5-26.4-6-26.3-6.9,0-.6,6.5-.1,10.5.2,6.7.5,12.1.9,18.1,2.5,2.3.6,3.8,1.2,17.1,7.5,17.7,8.5,20,9.9,22,11.2,6.8,4.5,11.6,9,14,11.4,4.1,3.9,6.7,6.9,11.1,12.1,6.7,7.8,6.7,8.7,13.2,16.1,1.4,1.6.4.4,11,12.1,3.2,3.5,5.8,6.4,9.7,10.1,6.4,6.1,9.2,7.8,12.6,7.9,2.1.1,3.7-.4,5.6-1.1,5.8-2.1,9.5-5.9,13-9.7,7.3-7.9,11.7-13.5,11.7-13.5,0,0,5.6-6.9,15.4-18.4,3.9-4.5,10.6-12.2,19.4-21.1,3.7-3.7,7.7-7.5,13.4-11.4,1.9-1.3,5.1-3.4,9.7-5.4,0,0,3.9-1.8,10.8-4.2Z"/>
      <path class="st23" d="M569.5,556.1c-7,4.1-12.5,8.2-16.5,11.5-3.8,3.2-9.5,8.8-15.8,15.8-6.2,6.9-6.5,8.8-13.1,15.8-2.8,3-4,4.1-7.5,7.9-4.5,5-4.9,6-8.8,10.3-2.4,2.6-5.4,6-9.8,9.8-3.6,3.1-6.8,5.9-11.8,8.6-2.5,1.3-5.3,2.8-9.4,3.6-1.5.3-4.8.9-8.8.4-1.9-.2-5.9-1-13.1-5.8-3.6-2.4-7-5.2-12.8-10.9-5.2-5.1-9.4-9.8-13.5-14.6-6.9-8-8-10.7-15.6-19.5-1.8-2.1-3.6-4.2-6.3-6.8-2.5-2.6-7.8-7.9-15.5-13.9-5-4-8.6-6.8-14.1-10-2.2-1.2-8-4.4-16.1-7.1-6-2-10.9-3-14.8-3.7-4.6-.9-8.1-1.3-9.5-1.5-2.8-.3-5.2-.5-7-.6"/>
      <path class="st98" d="M328.6,545.7c-.5,2.2,19.8,2.9,39,19.1,12.7,10.7,21.2,25.3,25.5,32.1,3.7,5.8,6.5,10.9,12,21.2,4.5,8.3,6.1,11.8,16.8,32.9,0,0,8.6,17.1,21,36.2,1.4,2.2,4.6,6.9,10.4,11,0,0,3,2.1,6.4,3.6,1.3.6,16.2,7,30.6,1,7.2-3,10.9-7.7,17.9-17,8-10.5,11.7-18.3,20.3-35.4,8.3-16.4,11.3-22.4,17.7-34.2,7.5-13.8,5.8-9.5,10.4-18,4.4-8.2,7.4-11.8,7.4-11.8.5-.7,1.9-2.6,3.2-5.4.4-.9,1.1-2.4,1.6-4.4.3-1.3.6-2.8.7-7.6,0-5.3.1-7.9-.8-8.3-.3,0-.7,0-4.1,2.8-2,1.7-3.3,2.9-3.3,2.9,0,0-5.3,4.9-9.4,10-1.2,1.4.3-.3-14.4,19.3-6.9,11-10.5,18.5-17.9,33.3-22.3,44.3-26.7,54.9-39.6,66.9-.7.7-2.4,2.2-4.7,2.2-4.1,0-7.1-4.9-9-8-4.4-7.1-10.2-13.3-13.9-20.7-6.7-13.5-13.8-26.8-20.6-40.2-6.5-12.7-9.7-19.1-13.5-25.6-9.4-16-16-26.9-28.3-37.3-9.4-7.9-17.9-12-20.9-13.4-19.8-9.1-39.8-9.3-40.3-7.1"/>
      <path class="st14" d="M328.6,545.7c-.5,2.2,19.8,2.9,39,19.1,12.7,10.7,21.2,25.3,25.5,32.1,3.7,5.8,6.5,10.9,12,21.2,4.5,8.3,6.1,11.8,16.8,32.9,0,0,8.6,17.1,21,36.2,1.4,2.2,4.6,6.9,10.4,11,0,0,3,2.1,6.4,3.6,1.3.6,16.2,7,30.6,1,7.2-3,10.9-7.7,17.9-17,8-10.5,11.7-18.3,20.3-35.4,8.3-16.4,11.3-22.4,17.7-34.2,7.5-13.8,5.8-9.5,10.4-18,4.4-8.2,7.4-11.8,7.4-11.8.5-.7,1.9-2.6,3.2-5.4.4-.9,1.1-2.4,1.6-4.4.3-1.3.6-2.8.7-7.6,0-5.3.1-7.9-.8-8.3-.3,0-.7,0-4.1,2.8-2,1.7-3.3,2.9-3.3,2.9,0,0-5.3,4.9-9.4,10-1.2,1.4.3-.3-14.4,19.3-6.9,11-10.5,18.5-17.9,33.3-22.3,44.3-26.7,54.9-39.6,66.9-.7.7-2.4,2.2-4.7,2.2-4.1,0-7.1-4.9-9-8-4.4-7.1-10.2-13.3-13.9-20.7-6.7-13.5-13.8-26.8-20.6-40.2-6.5-12.7-9.7-19.1-13.5-25.6-9.4-16-16-26.9-28.3-37.3-9.4-7.9-17.9-12-20.9-13.4-19.8-9.1-39.8-9.3-40.3-7.1Z"/>
      <path class="st14" d="M328.6,545.7c6.7.9,12.1,2,16,2.9,4,1,6.3,1.7,7.9,2.2,1.2.4,4.6,1.6,8.8,3.7,1.7.8,4.3,2.1,7.6,4.2,1.8,1.2,3.1,2.2,5.6,4,2.1,1.6,3.5,2.6,5.2,4.1,2.1,1.9,3.6,3.4,5,4.8,1.1,1.1,3.9,4.1,7.3,8.5,2.6,3.4,2.1,3.1,5,6.7,2.1,2.6,3.1,3.7,4.6,6.1,1.3,1.9,1.9,3.3,2.8,4.9,3.4,6.5,4.2,6.7,8.3,14.2,2,3.7,1.8,3.7,4.1,7.7,2.5,4.4,2.8,4.7,4.3,7.6,1.7,3.4,1.5,3.7,3.6,7.8,1,2,2,3.8,2.9,5.5,1.7,3.1,1.8,3.3,2.9,5.3,1.4,2.7,1.3,2.8,2.7,5.5,1.3,2.6,1.4,2.5,2.8,5.1,1.6,3.1,1.5,3.2,2.8,5.8,1.3,2.5,1.5,2.5,3.3,5.8,1.6,2.9,1.4,2.8,2.7,5,.3.6,1.8,3.1,3.9,6.3,1.4,2.1,2.6,3.6,3.8,5.3,5.8,7.6,8.8,11.4,11.3,13.2,3.8,2.7,7,3.6,8.1,3.9,1.4.3,3.6.9,6.2.6,2.2-.2,5-1,9.3-4.1,4.1-3,7.2-6.4,10.7-11.2,2.6-3.5,4.9-6.9,9.1-14.2,2.7-4.6,5.9-10,10.2-18.3,4.6-8.8,4.5-9.2,10.2-20.3,4.4-8.6,8-15,9.5-17.8,2.1-3.8,5.3-9.5,9.4-16.3,4.7-7.9,7.1-11.9,9.7-15.4.6-.8,3.5-4.2,9.4-11.2.9-1.1,2.9-3.4,3.8-4.5"/>
      <line class="st87" x1="320.2" y1="686.8" x2="338.2" y2="686.8"/>
      <line class="st13" x1="320.2" y1="686.8" x2="338.2" y2="686.8"/>
      <line class="st87" x1="320.2" y1="693.7" x2="338.2" y2="693.7"/>
      <line class="st1" x1="320.2" y1="693.7" x2="338.2" y2="693.7"/>
      <line class="st87" x1="320.2" y1="701.2" x2="338.2" y2="701.2"/>
      <line class="st21" x1="320.2" y1="701.2" x2="338.2" y2="701.2"/>
      <line class="st34" x1="473.3" y1="543.6" x2="473.3" y2="705.7"/>
      <line class="st8" x1="473.3" y1="543.6" x2="473.3" y2="545.5"/>
      <line class="st7" x1="473.3" y1="549.3" x2="473.3" y2="701.8"/>
      <line class="st8" x1="473.3" y1="703.8" x2="473.3" y2="705.7"/>
    </g>
    <path d="M575.6,705.1l3,1.5-3,1.5v-3ZM317.7,706.1h258.4v1h-258.4v-1Z"/>
    <path d="M319.2,522.5l-1.5-3-1.5,3h3ZM318.2,707v-184.9s-1,0-1,0v184.9s1,0,1,0Z"/>
    <text class="st29" transform="translate(457.4 715.4)"><tspan x="0" y="0">!</tspan></text>
    <text class="st29" transform="translate(514.9 715.4)"><tspan x="0" y="0">&quot;</tspan></text>
    <text class="st29" transform="translate(569.8 715.4)"><tspan x="0" y="0">#</tspan></text>
    <text class="st29" transform="translate(401.2 715.6)"><tspan x="0" y="0">$</tspan></text>
    <text class="st29" transform="translate(403.2 715.6)"><tspan x="0" y="0">&quot;</tspan></text>
    <text class="st29" transform="translate(343.5 715.3)"><tspan x="0" y="0">$</tspan></text>
    <text class="st29" transform="translate(345.5 715.3)"><tspan x="0" y="0">#</tspan></text>
    <text class="st29" transform="translate(299 702.2)"><tspan x="0" y="0">$</tspan></text>
    <text class="st29" transform="translate(301 702.2)"><tspan x="0" y="0">!%#!!</tspan></text>
    <text class="st29" transform="translate(298.6 625.3)"><tspan x="0" y="0">$</tspan></text>
    <text class="st29" transform="translate(300.6 625.3)"><tspan x="0" y="0">!%&quot;!!</tspan></text>
    <text class="st29" transform="translate(300.8 544.3)"><tspan x="0" y="0">!%!!!</tspan></text>
    <text class="st25" transform="translate(329.5 662) rotate(-90)"><tspan x="0" y="0">7</tspan></text>
    <text class="st30" transform="translate(329.5 658.3) rotate(-90)"><tspan x="0" y="0">!</tspan></text>
    <path class="st61" d="M325,651.9h.2c.2.4.4.7.9.9.4.2,1,.3,1.6.3s1.2-.1,1.7-.3c.4-.2.7-.6.9-1h.2c-.2.6-.5,1.1-1,1.4-.5.3-1.1.5-1.8.5s-1.3-.2-1.8-.5c-.5-.3-.8-.7-1-1.3ZM325,639.4c.2-.6.5-1,1-1.3.5-.3,1.1-.5,1.8-.5s1.3.2,1.8.5c.5.3.8.7,1,1.3h-.2c-.2-.4-.4-.7-.9-.9-.4-.2-1-.3-1.7-.3s-1.2.1-1.6.3c-.4.2-.7.6-.9,1h-.2Z"/>
    <text class="st30" transform="translate(329.5 651.6) rotate(-90)"><tspan class="st91" x="0" y="0">&quot;</tspan><tspan class="st103" x="2" y="0">#</tspan><tspan class="st101" x="5" y="0">$</tspan><tspan x="8.1" y="0">$</tspan></text>
    <text class="st30" transform="translate(329.5 635.5) rotate(-90)"><tspan x="0" y="0">%</tspan></text>
    <text class="st30" transform="translate(329.5 629.3) rotate(-90)"><tspan x="0" y="0">!</tspan></text>
    <path class="st61" d="M325,622.8h.2c.2.4.4.7.9.9.4.2,1,.3,1.6.3s1.2-.1,1.7-.3c.4-.2.7-.6.9-1h.2c-.2.6-.5,1.1-1,1.4-.5.3-1.1.5-1.8.5s-1.3-.2-1.8-.5c-.5-.3-.8-.7-1-1.3ZM325,608.5v-.5h5.5v.5h-5.5Z"/>
    <text class="st30" transform="translate(329.5 622.6) rotate(-90)"><tspan class="st91" x="0" y="0">&quot;</tspan><tspan class="st103" x="2" y="0">#</tspan><tspan class="st101" x="5" y="0">$</tspan><tspan x="8.1" y="0">$</tspan></text>
    <text class="st30" transform="translate(329.5 610.6) rotate(-90)"><tspan x="0" y="0">&amp;</tspan></text>
    <text class="st30" transform="translate(329.5 607.3) rotate(-90)"><tspan x="0" y="0">&amp;</tspan></text>
    <text class="st30" transform="translate(329.5 606) rotate(-90)"><tspan x="0" y="0">&apos;</tspan></text>
    <text class="st30" transform="translate(329.5 601.7) rotate(-90)"><tspan x="0" y="0">(</tspan></text>
    <text class="st25" transform="translate(329.5 595.8) rotate(-90)"><tspan x="0" y="0">7</tspan></text>
    <text class="st30" transform="translate(329.5 592.1) rotate(-90)"><tspan x="0" y="0">)</tspan></text>
    <text class="st30" transform="translate(329.5 588.3) rotate(-90)"><tspan x="0" y="0">(</tspan></text>
    <text class="st30" transform="translate(329.5 582.4) rotate(-90)"><tspan x="0" y="0">!</tspan></text>
    <text class="st30" transform="translate(329.5 578.3) rotate(-90)"><tspan x="0" y="0">*</tspan></text>
    <text class="st30" transform="translate(329.5 575.7) rotate(-90)"><tspan class="st91" x="0" y="0">&quot;</tspan><tspan class="st103" x="2" y="0">#</tspan><tspan class="st101" x="5" y="0">$</tspan><tspan x="8.1" y="0">$</tspan></text>
    <text class="st30" transform="translate(329.5 563.7) rotate(-90)"><tspan x="0" y="0">&amp;</tspan></text>
    <text class="st30" transform="translate(329.5 562.4) rotate(-90)"><tspan x="0" y="0">+</tspan></text>
    <text class="st30" transform="translate(329.5 560.6) rotate(-90)"><tspan x="0" y="0">&amp;</tspan></text>
    <text class="st30" transform="translate(329.5 559.3) rotate(-90)"><tspan x="0" y="0">&apos;</tspan></text>
    <text class="st30" transform="translate(329.5 556.2) rotate(-90)"><tspan x="0" y="0">)</tspan></text>
    <text class="st29" transform="translate(341.5 680.2)"><tspan class="st72" x="0" y="0">&amp;</tspan><tspan x="4.7" y="0">&apos;</tspan></text>
    <text class="st29" transform="translate(350.7 680.2)"><tspan class="st88" x="0" y="0">(</tspan><tspan x="2" y="0">)</tspan></text>
    <text class="st29" transform="translate(355.6 680.2)"><tspan x="0" y="0">$</tspan></text>
    <text class="st29" transform="translate(359.1 680.2)"><tspan x="0" y="0">!%&quot;</tspan></text>
    <text class="st29" transform="translate(341.5 687.8)"><tspan class="st72" x="0" y="0">&amp;</tspan><tspan x="4.7" y="0">&apos;</tspan></text>
    <text class="st29" transform="translate(350.7 687.8)"><tspan class="st88" x="0" y="0">(</tspan><tspan x="2" y="0">)</tspan></text>
    <text class="st29" transform="translate(355.6 687.8)"><tspan x="0" y="0">$</tspan></text>
    <text class="st29" transform="translate(359.1 687.8)"><tspan x="0" y="0">!%#</tspan></text>
    <text class="st29" transform="translate(341.5 695.4)"><tspan class="st72" x="0" y="0">&amp;</tspan><tspan x="4.7" y="0">&apos;</tspan></text>
    <text class="st29" transform="translate(350.7 695.4)"><tspan class="st88" x="0" y="0">(</tspan><tspan x="2" y="0">)</tspan></text>
    <text class="st29" transform="translate(355.6 695.4)"><tspan x="0" y="0">$</tspan></text>
    <text class="st29" transform="translate(359.1 695.4)"><tspan x="0" y="0">!%*</tspan></text>
    <text class="st29" transform="translate(341.5 703.5)"><tspan class="st72" x="0" y="0">&amp;</tspan><tspan x="4.7" y="0">&apos;</tspan></text>
    <text class="st29" transform="translate(350.7 703.5)"><tspan class="st88" x="0" y="0">(</tspan><tspan x="2" y="0">)</tspan></text>
    <text class="st29" transform="translate(355.6 703.5)"><tspan x="0" y="0">$</tspan></text>
    <text class="st29" transform="translate(359.1 703.5)"><tspan x="0" y="0">!%+</tspan></text>
  </g>
</svg>